<?xml version="1.0" standalone="no"?>
<!DOCTYPE svg PUBLIC "-//W3C//DTD SVG 20010904//EN"
 "http://www.w3.org/TR/2001/REC-SVG-20010904/DTD/svg10.dtd">
<svg version="1.0" xmlns="http://www.w3.org/2000/svg"
 width="256.000000pt" height="256.000000pt" viewBox="0 0 256.000000 256.000000"
 preserveAspectRatio="xMidYMid meet">

<g transform="translate(0.000000,256.000000) scale(0.100000,-0.100000)"
fill="#000000" stroke="none">
<path d="M1915 2011 c-60 -27 -164 -138 -272 -290 l-60 -83 -278 -2 -277 -2
-31 46 c-17 25 -33 47 -37 50 -3 3 -29 34 -57 70 -77 98 -163 176 -210 190
-33 10 -45 10 -71 -4 -40 -21 -58 -56 -71 -137 -14 -86 -14 -298 1 -439 13
-129 17 -285 6 -295 -4 -4 -47 7 -95 25 -110 40 -245 72 -255 62 -5 -5 40 -21
99 -36 59 -15 139 -40 178 -55 61 -24 70 -32 73 -56 3 -27 3 -27 -40 -22 -221
27 -386 32 -365 10 3 -3 61 -7 129 -9 68 -2 159 -10 203 -17 l80 -12 3 -32 3
-33 -102 0 c-111 0 -279 -19 -279 -31 0 -5 24 -5 53 -1 28 4 114 7 191 7 135
0 139 -1 147 -23 l8 -22 -114 6 c-134 8 -185 -5 -235 -62 -73 -84 -5 -198 90
-149 31 16 33 16 54 -4 27 -25 82 -28 108 -4 17 15 21 15 57 -2 23 -10 50 -15
64 -11 33 8 77 44 87 72 l10 24 599 0 599 0 21 -34 c20 -31 73 -66 101 -66 7
0 26 7 44 15 29 14 35 14 70 -4 40 -21 72 -16 107 15 14 13 20 12 45 -1 39
-20 56 -19 88 6 37 29 37 104 1 147 -42 50 -93 64 -225 61 -110 -3 -115 -2
-112 16 2 11 7 24 12 28 4 5 72 -1 151 -12 79 -11 145 -18 148 -16 12 13 -87
33 -241 50 l-58 6 0 35 c0 44 12 47 194 42 81 -1 146 0 146 3 0 14 -59 20
-194 18 l-141 -1 -3 30 c-2 22 2 34 15 41 16 8 253 61 275 61 5 0 8 5 8 11 0
13 -65 4 -189 -27 -51 -13 -98 -21 -102 -18 -13 8 -11 98 7 299 17 186 14 378
-7 474 -11 53 -48 96 -89 105 -15 4 -42 -2 -65 -13z m-895 -772 c46 -29 68
-54 96 -114 31 -66 30 -78 -8 -111 -85 -71 -164 -78 -233 -21 -41 33 -95 111
-95 137 0 21 57 88 94 111 41 25 102 24 146 -2z m733 10 c43 -12 101 -59 123
-100 13 -26 13 -32 -2 -61 -44 -85 -114 -140 -179 -140 -43 0 -113 33 -147 69
-25 27 -25 30 -12 73 17 58 76 127 128 151 49 22 42 21 89 8z m-389 -245 c20
-8 20 -23 -1 -46 -22 -24 -49 -23 -67 4 -26 36 16 62 68 42z"/>
<path d="M922 1209 c-61 -18 -92 -106 -55 -159 27 -40 45 -49 93 -49 48 0 66
9 93 49 27 39 18 124 -12 106 -21 -13 -50 4 -53 32 -3 30 -18 35 -66 21z"/>
<path d="M1654 1194 c-85 -42 -64 -182 31 -200 77 -14 146 58 126 133 -6 24
-12 28 -39 25 -30 -3 -32 -1 -32 27 0 27 -3 31 -27 31 -16 0 -42 -7 -59 -16z"/>
</g>
</svg>
